<?xml version="1.0" standalone="no"?>
<!DOCTYPE svg PUBLIC "-//W3C//DTD SVG 20010904//EN"
 "http://www.w3.org/TR/2001/REC-SVG-20010904/DTD/svg10.dtd">
<svg version="1.0" xmlns="http://www.w3.org/2000/svg"
 width="190.000000pt" height="190.000000pt" viewBox="0 0 190.000000 190.000000"
 preserveAspectRatio="xMidYMid meet">

<g transform="translate(0.000000,190.000000) scale(0.100000,-0.100000)"
fill="#000000" stroke="none">
<path d="M998 1813 c7 -3 16 -2 19 1 4 3 -2 6 -13 5 -11 0 -14 -3 -6 -6z"/>
<path d="M1003 1769 c-36 -23 -48 -67 -15 -54 9 3 29 9 45 12 22 4 27 11 27
34 0 34 -13 36 -57 8z"/>
<path d="M1150 1761 c0 -25 5 -30 39 -39 65 -16 61 22 -6 57 -31 16 -33 14
-33 -18z m61 -17 c12 -15 6 -17 -28 -8 -13 4 -23 12 -23 19 0 16 35 8 51 -11z"/>
<path d="M807 1715 c-20 -14 -37 -28 -37 -31 0 -2 18 8 40 22 35 23 47 34 37
34 -1 0 -19 -11 -40 -25z"/>
<path d="M893 1725 c-22 -9 -33 -21 -33 -35 0 -19 1 -20 36 -5 20 8 38 15 40
15 2 0 4 9 4 20 0 23 -4 24 -47 5z"/>
<path d="M1270 1715 c0 -8 13 -21 30 -30 37 -19 40 -19 40 4 0 12 -11 23 -31
30 -40 14 -39 14 -39 -4z m50 -15 c18 -12 2 -12 -25 0 -13 6 -15 9 -5 9 8 0
22 -4 30 -9z"/>
<path d="M788 1672 c-26 -15 -39 -52 -19 -52 18 0 53 37 50 52 -4 16 -6 16
-31 0z"/>
<path d="M1043 1683 c15 -2 39 -2 55 0 15 2 2 4 -28 4 -30 0 -43 -2 -27 -4z"/>
<path d="M714 1638 c-23 -24 -53 -61 -68 -83 l-28 -40 28 35 c16 19 48 55 71
79 40 41 48 51 40 51 -2 0 -21 -19 -43 -42z"/>
<path d="M1390 1654 c0 -10 12 -27 25 -37 25 -18 25 -18 25 8 0 14 -5 25 -11
25 -5 0 -7 -5 -3 -11 4 -7 1 -10 -7 -7 -8 3 -14 10 -14 16 0 5 -3 14 -7 18 -5
4 -8 -1 -8 -12z"/>
<path d="M888 1653 c7 -3 16 -2 19 1 4 3 -2 6 -13 5 -11 0 -14 -3 -6 -6z"/>
<path d="M941 1644 c-175 -47 -318 -200 -356 -379 -16 -77 -25 -93 -25 -45 0
25 -3 31 -11 23 -17 -17 -7 -46 21 -60 14 -7 19 -13 12 -13 -8 0 -5 -10 9 -29
22 -30 18 -57 -8 -47 -8 3 -11 1 -8 -4 11 -17 31 -11 43 13 6 12 13 55 16 95
3 58 10 82 36 123 17 28 29 53 27 56 -9 9 -60 -76 -72 -119 -2 -5 -3 -36 -4
-70 -1 -72 -21 -69 -28 4 -8 79 50 217 125 300 35 38 129 107 154 112 7 2 29
10 49 19 81 36 294 30 354 -9 13 -9 26 -11 29 -6 7 11 -30 27 -94 42 -65 14
-206 11 -269 -6z"/>
<path d="M805 1621 c-27 -16 -68 -49 -90 -73 l-40 -43 40 37 c22 20 67 53 99
72 33 20 56 36 50 36 -5 0 -31 -13 -59 -29z"/>
<path d="M1500 1616 c0 -2 8 -10 18 -17 15 -13 16 -12 3 4 -13 16 -21 21 -21
13z"/>
<path d="M1106 1594 c-5 -14 -4 -15 9 -4 17 14 19 20 6 20 -5 0 -12 -7 -15
-16z"/>
<path d="M1363 1581 c73 -47 127 -110 169 -196 21 -44 35 -66 32 -50 -18 80
-114 205 -195 253 -55 33 -60 26 -6 -7z"/>
<path d="M1311 1585 c1 -19 18 -51 18 -35 0 8 -4 22 -9 30 -5 8 -9 11 -9 5z"/>
<path d="M1082 1535 c0 -16 2 -22 5 -12 2 9 2 23 0 30 -3 6 -5 -1 -5 -18z"/>
<path d="M1495 1505 c59 -75 63 -78 39 -37 -10 18 -34 47 -53 65 -27 25 -24
19 14 -28z"/>
<path d="M592 1466 c-12 -24 -24 -57 -27 -72 -4 -16 6 -2 20 31 14 33 29 66
32 73 3 6 3 12 0 12 -3 0 -14 -20 -25 -44z"/>
<path d="M634 1449 c-14 -22 -24 -43 -22 -44 2 -2 16 16 31 40 33 56 26 59 -9
4z"/>
<path d="M985 1460 c-10 -16 16 -43 28 -31 6 6 4 15 -6 25 -10 11 -18 12 -22
6z"/>
<path d="M1162 1448 c4 -25 28 -37 28 -14 0 9 -5 16 -11 16 -5 0 -7 5 -4 10 3
6 1 10 -5 10 -6 0 -10 -10 -8 -22z"/>
<path d="M1321 1444 c0 -11 3 -14 6 -6 3 7 2 16 -1 19 -3 4 -6 -2 -5 -13z"/>
<path d="M1390 1420 c8 -5 20 -10 25 -10 6 0 3 5 -5 10 -8 5 -19 10 -25 10 -5
0 -3 -5 5 -10z"/>
<path d="M707 1394 c6 -15 23 -19 23 -5 0 5 -7 11 -14 14 -10 4 -13 1 -9 -9z"/>
<path d="M1110 1403 c0 -7 5 -15 10 -18 17 -11 11 -35 -9 -35 -20 0 -35 25
-25 41 3 5 -3 9 -13 9 -48 0 -59 -66 -17 -99 34 -27 40 -26 70 5 20 19 24 31
19 52 -7 29 -35 65 -35 45z"/>
<path d="M1430 1398 c0 -16 23 -19 37 -5 14 13 13 15 -11 14 -14 -1 -26 -5
-26 -9z"/>
<path d="M586 1355 c-9 -26 -7 -32 5 -12 6 10 9 21 6 23 -2 3 -7 -2 -11 -11z"/>
<path d="M551 1353 c-1 -6 -4 -20 -7 -30 -5 -17 -5 -17 6 0 6 10 9 23 6 30 -3
9 -5 9 -5 0z"/>
<path d="M1521 1310 c14 -31 19 -36 19 -24 0 6 -7 19 -16 30 -14 18 -14 18 -3
-6z"/>
<path d="M363 1294 c-3 -8 -2 -19 3 -24 5 -5 9 1 9 16 0 28 -3 30 -12 8z"/>
<path d="M1577 1265 c12 -57 10 -122 -5 -137 -9 -9 -12 1 -13 48 l-2 59 -7
-60 c-8 -74 2 -90 34 -50 22 28 23 31 10 98 -8 39 -16 73 -20 76 -3 3 -2 -12
3 -34z"/>
<path d="M525 1280 c-3 -5 -1 -10 4 -10 6 0 11 5 11 10 0 6 -2 10 -4 10 -3 0
-8 -4 -11 -10z"/>
<path d="M561 1274 c0 -11 3 -14 6 -6 3 7 2 16 -1 19 -3 4 -6 -2 -5 -13z"/>
<path d="M1541 1254 c0 -11 3 -14 6 -6 3 7 2 16 -1 19 -3 4 -6 -2 -5 -13z"/>
<path d="M1625 1226 c-3 -9 -7 -23 -10 -31 -2 -8 -2 -15 1 -15 7 0 25 52 20
58 -3 3 -8 -3 -11 -12z"/>
<path d="M1025 1174 c-11 -3 -65 -19 -119 -35 -55 -16 -115 -29 -134 -29 -33
0 -34 -1 -28 -32 11 -58 56 -142 98 -185 22 -23 68 -54 102 -70 53 -24 73 -28
151 -28 74 0 98 4 139 24 72 35 121 88 160 172 53 114 54 119 14 119 -18 0
-76 14 -128 31 -91 28 -211 44 -255 33z m35 -194 c23 -6 47 -6 73 1 57 15 133
-3 169 -41 24 -26 26 -33 16 -50 -21 -33 -120 -79 -186 -86 -96 -10 -242 36
-250 79 -14 73 81 125 178 97z"/>
<path d="M300 1159 c0 -5 5 -7 10 -4 6 3 10 8 10 11 0 2 -4 4 -10 4 -5 0 -10
-5 -10 -11z"/>
<path d="M338 1136 c-9 -21 -16 -24 -39 -19 -19 3 -29 1 -29 -6 0 -7 4 -10 9
-6 6 3 17 -11 27 -30 9 -20 19 -34 21 -31 3 2 -1 15 -8 27 -9 17 -9 24 0 27
12 4 46 62 36 62 -3 0 -10 -11 -17 -24z"/>
<path d="M545 1148 c-10 -25 -2 -49 13 -39 9 5 10 14 3 32 -8 20 -10 21 -16 7z"/>
<path d="M1618 1140 c-7 -24 -3 -38 8 -28 3 4 4 17 2 30 l-3 23 -7 -25z"/>
<path d="M538 1055 c-2 -19 0 -35 4 -35 4 0 8 16 8 35 0 19 -2 35 -4 35 -2 0
-6 -16 -8 -35z"/>
<path d="M547 996 c-3 -8 0 -28 8 -43 7 -15 16 -44 19 -63 8 -56 12 -69 19
-76 4 -4 7 -16 7 -26 0 -10 11 -24 25 -30 22 -10 24 -15 18 -52 -3 -23 -7 -43
-9 -45 -11 -13 -144 96 -157 129 -5 13 -6 13 -6 0 -1 -8 15 -31 35 -51 l37
-37 -35 -64 c-92 -165 -126 -302 -93 -373 l13 -30 1 45 c2 57 12 74 40 65 19
-6 21 -2 21 28 0 65 13 100 54 143 27 27 53 44 76 49 35 6 35 7 32 53 -2 26 1
65 5 86 7 32 14 41 37 47 16 5 33 14 37 21 6 9 16 8 46 -6 74 -36 157 -66 184
-66 15 0 40 -5 55 -10 21 -9 31 -7 46 7 18 16 22 16 47 2 17 -10 34 -13 46 -8
11 4 36 8 56 8 34 1 133 35 154 53 17 15 36 9 82 -27 44 -34 83 -46 83 -25 0
5 7 6 17 3 11 -4 14 -3 9 5 -8 13 11 55 22 48 4 -2 8 12 9 32 3 47 -22 78 -62
78 -25 -1 -30 3 -35 29 -4 24 -7 26 -12 13 -4 -10 -5 -24 -2 -31 14 -38 -140
-106 -288 -128 -165 -24 -403 25 -438 91 -6 12 -14 19 -17 16 -8 -8 -33 13
-33 27 0 6 7 2 15 -9 21 -27 18 -10 -5 36 -19 38 -37 55 -27 28 2 -7 0 -26 -4
-41 -5 -18 -4 -36 4 -48 8 -14 9 -21 0 -30 -15 -15 -53 -2 -46 17 3 7 0 14 -6
14 -6 0 -8 6 -5 13 2 7 -4 21 -15 31 -11 10 -27 40 -36 67 -18 53 -20 56 -28
35z m983 -214 c0 -18 -18 -42 -31 -42 -10 0 -39 30 -39 40 0 5 7 16 16 24 19
20 54 5 54 -22z"/>
<path d="M515 990 c3 -5 8 -10 11 -10 2 0 4 5 4 10 0 6 -5 10 -11 10 -5 0 -7
-4 -4 -10z"/>
<path d="M447 959 c-9 -6 -15 -14 -12 -20 10 -15 23 -10 35 11 12 22 4 25 -23
9z"/>
<path d="M1596 927 c-11 -23 -22 -46 -24 -51 -3 -5 9 2 26 14 35 26 44 43 36
65 -9 24 -18 18 -38 -28z"/>
<path d="M1745 959 c-4 -6 -5 -12 -2 -15 2 -3 7 2 10 11 7 17 1 20 -8 4z"/>
<path d="M383 910 c12 -22 26 -40 32 -40 5 0 4 5 -3 12 -19 19 -14 30 7 18 13
-7 28 -7 45 0 37 14 32 20 -10 13 -28 -5 -39 -2 -46 11 -5 9 -13 14 -19 11 -5
-4 -9 -1 -9 4 0 6 -4 11 -9 11 -5 0 0 -18 12 -40z"/>
<path d="M420 855 c0 -15 18 -40 24 -34 3 3 -1 14 -9 25 -8 10 -14 15 -15 9z"/>
<path d="M1867 823 c-10 -48 -79 -155 -97 -149 -42 13 -86 32 -92 40 -12 18
-20 -43 -9 -76 5 -18 15 -60 21 -94 11 -54 10 -70 -9 -139 -12 -43 -36 -113
-53 -154 -28 -67 -33 -73 -39 -51 -6 20 -7 17 -8 -18 -1 -42 -1 -43 33 -40 19
1 41 -4 49 -10 13 -11 15 -6 18 32 4 44 4 45 -16 27 -53 -46 -54 -40 -2 27 31
41 69 96 84 124 24 45 28 48 40 32 15 -20 15 -20 36 21 8 17 13 42 10 57 -3
14 0 36 7 48 6 12 9 24 6 27 -3 3 -11 -7 -17 -23 -11 -29 -11 -29 -20 -6 -12
31 -43 30 -35 -1 5 -23 -17 -67 -34 -67 -34 0 -12 150 27 188 29 26 36 27 58
5 12 -11 15 -25 10 -50 -4 -21 -2 -33 5 -33 6 0 9 4 6 9 -3 4 1 34 9 66 14 53
34 163 38 209 3 30 -20 30 -26 -1z m-57 -361 c0 -9 -25 -33 -49 -47 -10 -5 -8
2 5 24 17 28 44 43 44 23z"/>
<path d="M1701 833 c-1 -6 -4 -20 -7 -30 -5 -17 -5 -17 6 0 6 10 9 23 6 30 -3
9 -5 9 -5 0z"/>
<path d="M1599 723 c-11 -49 -14 -54 -21 -33 -4 14 -5 4 -2 -25 4 -39 3 -47
-6 -35 -9 12 -10 11 -5 -7 4 -14 2 -23 -4 -23 -6 0 -11 -5 -11 -11 0 -5 5 -7
10 -4 6 3 10 1 10 -4 0 -6 -6 -11 -14 -11 -8 0 -17 15 -20 35 -4 21 -13 35
-21 35 -8 0 -15 9 -15 20 0 11 -4 20 -10 20 -5 0 -10 -20 -10 -45 0 -26 -5
-45 -11 -45 -6 0 -9 -7 -5 -15 3 -8 2 -15 -2 -15 -4 0 -9 -11 -10 -25 -1 -14
3 -25 8 -25 6 0 10 -4 10 -10 0 -5 -7 -10 -15 -10 -8 0 -15 4 -15 10 0 5 -23
-5 -52 -23 -42 -26 -61 -32 -107 -31 -31 0 -65 4 -76 8 -18 6 -20 2 -22 -34
l-1 -41 36 7 c73 12 138 34 182 62 25 15 53 31 64 35 11 4 16 13 12 22 -7 19
3 47 14 40 5 -3 7 15 5 40 -2 31 1 45 9 42 6 -2 10 -11 8 -21 -2 -9 2 -16 8
-16 18 0 11 -74 -12 -120 -18 -35 -28 -45 -46 -44 -23 1 -24 0 -18 -78 l6 -79
-43 -30 c-37 -26 -43 -35 -39 -59 4 -28 4 -28 38 -14 54 23 61 19 67 -38 7
-59 52 -116 81 -105 20 8 23 93 4 100 -32 10 -2 349 51 576 10 45 15 81 10 81
-4 0 -13 -26 -20 -57z m-85 -311 c3 -5 -1 -9 -9 -9 -8 0 -15 4 -15 9 0 4 4 8
9 8 6 0 12 -4 15 -8z m13 -44 c-3 -8 -6 -5 -6 6 -1 11 2 17 5 13 3 -3 4 -12 1
-19z m-2 -47 c-3 -6 -11 -11 -17 -11 -6 0 -6 6 2 15 14 17 26 13 15 -4z m-1
-133 c4 -17 2 -28 -4 -28 -5 0 -10 14 -10 32 0 36 4 35 14 -4z m31 -118 c-9
-15 -31 9 -33 38 l-2 25 21 -27 c11 -14 18 -30 14 -36z"/>
<path d="M1677 750 c-3 -11 -1 -20 4 -20 5 0 9 9 9 20 0 11 -2 20 -4 20 -2 0
-6 -9 -9 -20z"/>
<path d="M1000 661 c0 -6 4 -13 10 -16 6 -3 7 1 4 9 -7 18 -14 21 -14 7z"/>
<path d="M1070 615 c12 -15 30 -12 30 6 0 5 -10 9 -21 9 -18 0 -19 -2 -9 -15z"/>
<path d="M1632 535 c-7 -37 -11 -69 -9 -71 6 -7 30 112 25 127 -2 6 -10 -18
-16 -56z"/>
<path d="M1880 580 c0 -5 5 -10 10 -10 6 0 10 5 10 10 0 6 -4 10 -10 10 -5 0
-10 -4 -10 -10z"/>
<path d="M960 484 c-19 -7 -54 -13 -78 -13 -24 -1 -42 -4 -40 -8 24 -51 33
-63 44 -63 13 0 106 -29 113 -36 2 -1 -6 -15 -16 -31 -25 -36 -39 -61 -26 -48
15 16 63 83 63 89 0 2 -12 6 -27 8 -26 3 -28 6 -28 48 0 39 3 45 23 48 12 2
22 8 22 13 0 11 -5 10 -50 -7z"/>
<path d="M994 460 c-17 -17 -5 -58 20 -63 30 -6 120 -2 134 7 15 9 16 42 2 51
-19 12 -145 16 -156 5z"/>
<path d="M1471 454 c0 -11 3 -14 6 -6 3 7 2 16 -1 19 -3 4 -6 -2 -5 -13z"/>
<path d="M1612 420 c0 -19 2 -27 5 -17 2 9 2 25 0 35 -3 9 -5 1 -5 -18z"/>
<path d="M1572 380 c0 -14 2 -19 5 -12 2 6 2 18 0 25 -3 6 -5 1 -5 -13z"/>
<path d="M1034 364 c3 -8 2 -14 -3 -14 -5 0 -28 -36 -50 -80 -23 -44 -46 -80
-51 -80 -5 0 -13 8 -19 17 -11 20 -16 17 -25 -12 -5 -17 2 -25 40 -43 25 -13
66 -25 90 -29 43 -6 44 -5 44 24 0 16 5 34 11 40 7 7 -5 12 -42 16 -28 4 -54
9 -57 12 -9 9 49 115 74 134 23 18 23 19 3 24 -15 4 -19 2 -15 -9z"/>
<path d="M1602 355 c0 -16 2 -22 5 -12 2 9 2 23 0 30 -3 6 -5 -1 -5 -18z"/>
<path d="M1593 285 c0 -22 2 -30 4 -17 2 12 2 30 0 40 -3 9 -5 -1 -4 -23z"/>
<path d="M1165 201 c-62 -9 -29 -18 67 -17 47 1 85 -1 83 -2 -2 -2 -21 -10
-42 -17 -22 -8 -30 -14 -18 -15 19 0 85 34 85 45 0 3 -21 4 -47 2 -27 -1 -57
1 -68 4 -11 3 -38 3 -60 0z"/>
<path d="M1100 191 c0 -5 10 -15 23 -23 28 -19 107 -32 107 -18 0 5 -15 10
-32 10 -18 0 -48 9 -65 20 -18 11 -33 16 -33 11z"/>
</g>
</svg>
